<mxfile host="app.diagrams.net" modified="2021-11-30T01:32:14.906Z" agent="5.0 (Windows NT 10.0; Win64; x64) AppleWebKit/537.36 (KHTML, like Gecko) Chrome/96.0.4664.55 Safari/537.36 Edg/96.0.1054.34" etag="b-vT0JRF0fx4R7ZufCjs" version="15.8.7" type="github">
  <diagram id="C5RBs43oDa-KdzZeNtuy" name="Page-1">
    <mxGraphModel dx="1736" dy="948" grid="1" gridSize="10" guides="1" tooltips="1" connect="1" arrows="1" fold="1" page="1" pageScale="1" pageWidth="827" pageHeight="1169" math="0" shadow="0">
      <root>
        <mxCell id="WIyWlLk6GJQsqaUBKTNV-0" />
        <mxCell id="WIyWlLk6GJQsqaUBKTNV-1" parent="WIyWlLk6GJQsqaUBKTNV-0" />
        <mxCell id="L9G7UZA-Zq7kuef2tqRc-51" style="edgeStyle=orthogonalEdgeStyle;rounded=0;orthogonalLoop=1;jettySize=auto;html=1;entryX=1;entryY=0.25;entryDx=0;entryDy=0;fontSize=16;exitX=0.5;exitY=1;exitDx=0;exitDy=0;" parent="WIyWlLk6GJQsqaUBKTNV-1" source="zkfFHV4jXpPFQw0GAbJ--6" target="L9G7UZA-Zq7kuef2tqRc-0" edge="1">
          <mxGeometry relative="1" as="geometry" />
        </mxCell>
        <mxCell id="zkfFHV4jXpPFQw0GAbJ--6" value="ReactJS" style="swimlane;fontStyle=0;align=center;verticalAlign=top;childLayout=stackLayout;horizontal=1;startSize=26;horizontalStack=0;resizeParent=1;resizeLast=0;collapsible=1;marginBottom=0;rounded=0;shadow=0;strokeWidth=1;" parent="WIyWlLk6GJQsqaUBKTNV-1" vertex="1">
          <mxGeometry x="210" y="60" width="160" height="90" as="geometry">
            <mxRectangle x="130" y="380" width="160" height="26" as="alternateBounds" />
          </mxGeometry>
        </mxCell>
        <mxCell id="zkfFHV4jXpPFQw0GAbJ--7" value="Xem biểu đồ thị trường" style="text;align=left;verticalAlign=top;spacingLeft=4;spacingRight=4;overflow=hidden;rotatable=0;points=[[0,0.5],[1,0.5]];portConstraint=eastwest;" parent="zkfFHV4jXpPFQw0GAbJ--6" vertex="1">
          <mxGeometry y="26" width="160" height="26" as="geometry" />
        </mxCell>
        <mxCell id="zkfFHV4jXpPFQw0GAbJ--8" value="Đặt lệnh (Mua/ Bán)" style="text;align=left;verticalAlign=top;spacingLeft=4;spacingRight=4;overflow=hidden;rotatable=0;points=[[0,0.5],[1,0.5]];portConstraint=eastwest;rounded=0;shadow=0;html=0;" parent="zkfFHV4jXpPFQw0GAbJ--6" vertex="1">
          <mxGeometry y="52" width="160" height="26" as="geometry" />
        </mxCell>
        <mxCell id="L9G7UZA-Zq7kuef2tqRc-11" value="" style="edgeStyle=orthogonalEdgeStyle;rounded=0;orthogonalLoop=1;jettySize=auto;html=1;fontSize=16;entryX=0.577;entryY=0.007;entryDx=0;entryDy=0;entryPerimeter=0;" parent="WIyWlLk6GJQsqaUBKTNV-1" target="L9G7UZA-Zq7kuef2tqRc-36" edge="1">
          <mxGeometry relative="1" as="geometry">
            <mxPoint x="720" y="270" as="sourcePoint" />
          </mxGeometry>
        </mxCell>
        <mxCell id="L9G7UZA-Zq7kuef2tqRc-47" style="edgeStyle=orthogonalEdgeStyle;rounded=0;orthogonalLoop=1;jettySize=auto;html=1;entryX=0.603;entryY=1.015;entryDx=0;entryDy=0;entryPerimeter=0;fontSize=16;" parent="WIyWlLk6GJQsqaUBKTNV-1" source="zkfFHV4jXpPFQw0GAbJ--13" target="L9G7UZA-Zq7kuef2tqRc-24" edge="1">
          <mxGeometry relative="1" as="geometry" />
        </mxCell>
        <mxCell id="zkfFHV4jXpPFQw0GAbJ--13" value="Common&#xa;" style="swimlane;fontStyle=0;align=center;verticalAlign=top;childLayout=stackLayout;horizontal=1;startSize=26;horizontalStack=0;resizeParent=1;resizeLast=0;collapsible=1;marginBottom=0;rounded=0;shadow=0;strokeWidth=1;" parent="WIyWlLk6GJQsqaUBKTNV-1" vertex="1">
          <mxGeometry x="640" y="201" width="160" height="70" as="geometry">
            <mxRectangle x="340" y="380" width="170" height="26" as="alternateBounds" />
          </mxGeometry>
        </mxCell>
        <mxCell id="zkfFHV4jXpPFQw0GAbJ--14" value="Component, function,&#xa;variable&#xa;" style="text;align=center;verticalAlign=top;spacingLeft=4;spacingRight=4;overflow=hidden;rotatable=0;points=[[0,0.5],[1,0.5]];portConstraint=eastwest;" parent="zkfFHV4jXpPFQw0GAbJ--13" vertex="1">
          <mxGeometry y="26" width="160" height="44" as="geometry" />
        </mxCell>
        <mxCell id="L9G7UZA-Zq7kuef2tqRc-48" style="edgeStyle=orthogonalEdgeStyle;rounded=0;orthogonalLoop=1;jettySize=auto;html=1;entryX=0;entryY=0.5;entryDx=0;entryDy=0;fontSize=16;" parent="WIyWlLk6GJQsqaUBKTNV-1" source="L9G7UZA-Zq7kuef2tqRc-0" target="L9G7UZA-Zq7kuef2tqRc-10" edge="1">
          <mxGeometry relative="1" as="geometry" />
        </mxCell>
        <mxCell id="L9G7UZA-Zq7kuef2tqRc-50" style="edgeStyle=orthogonalEdgeStyle;rounded=0;orthogonalLoop=1;jettySize=auto;html=1;entryX=0;entryY=0.5;entryDx=0;entryDy=0;fontSize=16;" parent="WIyWlLk6GJQsqaUBKTNV-1" source="L9G7UZA-Zq7kuef2tqRc-0" target="zkfFHV4jXpPFQw0GAbJ--8" edge="1">
          <mxGeometry relative="1" as="geometry" />
        </mxCell>
        <mxCell id="L9G7UZA-Zq7kuef2tqRc-0" value="User" style="rounded=0;whiteSpace=wrap;html=1;" parent="WIyWlLk6GJQsqaUBKTNV-1" vertex="1">
          <mxGeometry x="20" y="210" width="120" height="70" as="geometry" />
        </mxCell>
        <mxCell id="L9G7UZA-Zq7kuef2tqRc-52" style="edgeStyle=orthogonalEdgeStyle;rounded=0;orthogonalLoop=1;jettySize=auto;html=1;entryX=1;entryY=0.75;entryDx=0;entryDy=0;fontSize=16;exitX=0.5;exitY=0;exitDx=0;exitDy=0;" parent="WIyWlLk6GJQsqaUBKTNV-1" source="L9G7UZA-Zq7kuef2tqRc-8" target="L9G7UZA-Zq7kuef2tqRc-0" edge="1">
          <mxGeometry relative="1" as="geometry" />
        </mxCell>
        <mxCell id="L9G7UZA-Zq7kuef2tqRc-8" value="VueJS" style="swimlane;fontStyle=0;align=center;verticalAlign=top;childLayout=stackLayout;horizontal=1;startSize=26;horizontalStack=0;resizeParent=1;resizeLast=0;collapsible=1;marginBottom=0;rounded=0;shadow=0;strokeWidth=1;" parent="WIyWlLk6GJQsqaUBKTNV-1" vertex="1">
          <mxGeometry x="210" y="340" width="160" height="120" as="geometry">
            <mxRectangle x="130" y="380" width="160" height="26" as="alternateBounds" />
          </mxGeometry>
        </mxCell>
        <mxCell id="L9G7UZA-Zq7kuef2tqRc-9" value="Thông tin cá nhân" style="text;align=left;verticalAlign=top;spacingLeft=4;spacingRight=4;overflow=hidden;rotatable=0;points=[[0,0.5],[1,0.5]];portConstraint=eastwest;" parent="L9G7UZA-Zq7kuef2tqRc-8" vertex="1">
          <mxGeometry y="26" width="160" height="26" as="geometry" />
        </mxCell>
        <mxCell id="L9G7UZA-Zq7kuef2tqRc-10" value="Đăng nhập, Đăng xuất&#xa;" style="text;align=left;verticalAlign=top;spacingLeft=4;spacingRight=4;overflow=hidden;rotatable=0;points=[[0,0.5],[1,0.5]];portConstraint=eastwest;rounded=0;shadow=0;html=0;" parent="L9G7UZA-Zq7kuef2tqRc-8" vertex="1">
          <mxGeometry y="52" width="160" height="26" as="geometry" />
        </mxCell>
        <mxCell id="L9G7UZA-Zq7kuef2tqRc-12" value="Chỉnh sửa" style="text;align=left;verticalAlign=top;spacingLeft=4;spacingRight=4;overflow=hidden;rotatable=0;points=[[0,0.5],[1,0.5]];portConstraint=eastwest;rounded=0;shadow=0;html=0;" parent="L9G7UZA-Zq7kuef2tqRc-8" vertex="1">
          <mxGeometry y="78" width="160" height="26" as="geometry" />
        </mxCell>
        <mxCell id="L9G7UZA-Zq7kuef2tqRc-46" style="edgeStyle=orthogonalEdgeStyle;rounded=0;orthogonalLoop=1;jettySize=auto;html=1;entryX=-0.003;entryY=0.31;entryDx=0;entryDy=0;fontSize=16;entryPerimeter=0;" parent="WIyWlLk6GJQsqaUBKTNV-1" source="L9G7UZA-Zq7kuef2tqRc-15" target="zkfFHV4jXpPFQw0GAbJ--14" edge="1">
          <mxGeometry relative="1" as="geometry" />
        </mxCell>
        <mxCell id="L9G7UZA-Zq7kuef2tqRc-15" value="Header, Footer,...&lt;br&gt;" style="rounded=0;whiteSpace=wrap;html=1;fontSize=16;" parent="WIyWlLk6GJQsqaUBKTNV-1" vertex="1">
          <mxGeometry x="430" y="220" width="140" height="40" as="geometry" />
        </mxCell>
        <mxCell id="L9G7UZA-Zq7kuef2tqRc-23" style="edgeStyle=orthogonalEdgeStyle;rounded=0;orthogonalLoop=1;jettySize=auto;html=1;exitX=1;exitY=0.5;exitDx=0;exitDy=0;fontSize=16;" parent="WIyWlLk6GJQsqaUBKTNV-1" source="L9G7UZA-Zq7kuef2tqRc-18" edge="1">
          <mxGeometry relative="1" as="geometry">
            <mxPoint x="600" y="109.83333333333337" as="targetPoint" />
          </mxGeometry>
        </mxCell>
        <mxCell id="L9G7UZA-Zq7kuef2tqRc-18" value="Router" style="rounded=0;whiteSpace=wrap;html=1;fontSize=16;" parent="WIyWlLk6GJQsqaUBKTNV-1" vertex="1">
          <mxGeometry x="414" y="90" width="140" height="40" as="geometry" />
        </mxCell>
        <mxCell id="L9G7UZA-Zq7kuef2tqRc-21" style="edgeStyle=orthogonalEdgeStyle;rounded=0;orthogonalLoop=1;jettySize=auto;html=1;entryX=0;entryY=0.5;entryDx=0;entryDy=0;fontSize=16;" parent="WIyWlLk6GJQsqaUBKTNV-1" target="L9G7UZA-Zq7kuef2tqRc-18" edge="1">
          <mxGeometry relative="1" as="geometry">
            <mxPoint x="370" y="110" as="sourcePoint" />
          </mxGeometry>
        </mxCell>
        <mxCell id="L9G7UZA-Zq7kuef2tqRc-40" style="edgeStyle=orthogonalEdgeStyle;rounded=0;orthogonalLoop=1;jettySize=auto;html=1;entryX=0;entryY=0.5;entryDx=0;entryDy=0;fontSize=16;" parent="WIyWlLk6GJQsqaUBKTNV-1" source="L9G7UZA-Zq7kuef2tqRc-22" target="L9G7UZA-Zq7kuef2tqRc-36" edge="1">
          <mxGeometry relative="1" as="geometry" />
        </mxCell>
        <mxCell id="L9G7UZA-Zq7kuef2tqRc-22" value="Router" style="rounded=0;whiteSpace=wrap;html=1;fontSize=16;" parent="WIyWlLk6GJQsqaUBKTNV-1" vertex="1">
          <mxGeometry x="414" y="385" width="140" height="40" as="geometry" />
        </mxCell>
        <mxCell id="L9G7UZA-Zq7kuef2tqRc-26" value="" style="edgeStyle=orthogonalEdgeStyle;rounded=0;orthogonalLoop=1;jettySize=auto;html=1;fontSize=16;exitX=1;exitY=0.25;exitDx=0;exitDy=0;entryX=0;entryY=0.25;entryDx=0;entryDy=0;" parent="WIyWlLk6GJQsqaUBKTNV-1" source="L9G7UZA-Zq7kuef2tqRc-24" target="L9G7UZA-Zq7kuef2tqRc-25" edge="1">
          <mxGeometry relative="1" as="geometry" />
        </mxCell>
        <mxCell id="L9G7UZA-Zq7kuef2tqRc-24" value="Component Mua&lt;br&gt;Component Bán&lt;br&gt;Component Xem Thị trường&lt;br&gt;....&lt;br&gt;" style="rounded=0;whiteSpace=wrap;html=1;fontSize=16;" parent="WIyWlLk6GJQsqaUBKTNV-1" vertex="1">
          <mxGeometry x="600" y="50" width="200" height="120" as="geometry" />
        </mxCell>
        <mxCell id="L9G7UZA-Zq7kuef2tqRc-29" style="edgeStyle=orthogonalEdgeStyle;rounded=0;orthogonalLoop=1;jettySize=auto;html=1;entryX=1;entryY=0.75;entryDx=0;entryDy=0;fontSize=16;exitX=0;exitY=0.75;exitDx=0;exitDy=0;" parent="WIyWlLk6GJQsqaUBKTNV-1" source="L9G7UZA-Zq7kuef2tqRc-25" target="L9G7UZA-Zq7kuef2tqRc-24" edge="1">
          <mxGeometry relative="1" as="geometry" />
        </mxCell>
        <mxCell id="L9G7UZA-Zq7kuef2tqRc-44" style="edgeStyle=orthogonalEdgeStyle;rounded=0;orthogonalLoop=1;jettySize=auto;html=1;entryX=0.75;entryY=0;entryDx=0;entryDy=0;fontSize=16;exitX=0.75;exitY=1;exitDx=0;exitDy=0;" parent="WIyWlLk6GJQsqaUBKTNV-1" source="L9G7UZA-Zq7kuef2tqRc-25" target="L9G7UZA-Zq7kuef2tqRc-32" edge="1">
          <mxGeometry relative="1" as="geometry" />
        </mxCell>
        <mxCell id="L9G7UZA-Zq7kuef2tqRc-25" value="Redux" style="rounded=0;whiteSpace=wrap;html=1;fontSize=16;" parent="WIyWlLk6GJQsqaUBKTNV-1" vertex="1">
          <mxGeometry x="1000" y="50" width="130" height="120" as="geometry" />
        </mxCell>
        <mxCell id="L9G7UZA-Zq7kuef2tqRc-43" style="edgeStyle=orthogonalEdgeStyle;rounded=0;orthogonalLoop=1;jettySize=auto;html=1;entryX=0.75;entryY=0;entryDx=0;entryDy=0;fontSize=16;exitX=0.75;exitY=1;exitDx=0;exitDy=0;" parent="WIyWlLk6GJQsqaUBKTNV-1" source="L9G7UZA-Zq7kuef2tqRc-32" target="L9G7UZA-Zq7kuef2tqRc-38" edge="1">
          <mxGeometry relative="1" as="geometry" />
        </mxCell>
        <mxCell id="L9G7UZA-Zq7kuef2tqRc-45" style="edgeStyle=orthogonalEdgeStyle;rounded=0;orthogonalLoop=1;jettySize=auto;html=1;entryX=0.25;entryY=1;entryDx=0;entryDy=0;fontSize=16;" parent="WIyWlLk6GJQsqaUBKTNV-1" target="L9G7UZA-Zq7kuef2tqRc-25" edge="1">
          <mxGeometry relative="1" as="geometry">
            <mxPoint x="1033" y="200" as="sourcePoint" />
          </mxGeometry>
        </mxCell>
        <mxCell id="L9G7UZA-Zq7kuef2tqRc-57" style="edgeStyle=orthogonalEdgeStyle;rounded=0;orthogonalLoop=1;jettySize=auto;html=1;entryX=-0.026;entryY=0.686;entryDx=0;entryDy=0;entryPerimeter=0;fontSize=16;" parent="WIyWlLk6GJQsqaUBKTNV-1" source="L9G7UZA-Zq7kuef2tqRc-32" edge="1">
          <mxGeometry relative="1" as="geometry">
            <mxPoint x="1176.88" y="261.15999999999997" as="targetPoint" />
          </mxGeometry>
        </mxCell>
        <mxCell id="L9G7UZA-Zq7kuef2tqRc-32" value="API" style="whiteSpace=wrap;html=1;aspect=fixed;fontSize=16;" parent="WIyWlLk6GJQsqaUBKTNV-1" vertex="1">
          <mxGeometry x="1000" y="201" width="120" height="120" as="geometry" />
        </mxCell>
        <mxCell id="L9G7UZA-Zq7kuef2tqRc-35" value="" style="edgeStyle=orthogonalEdgeStyle;rounded=0;orthogonalLoop=1;jettySize=auto;html=1;fontSize=16;exitX=1;exitY=0.25;exitDx=0;exitDy=0;entryX=0;entryY=0.25;entryDx=0;entryDy=0;" parent="WIyWlLk6GJQsqaUBKTNV-1" source="L9G7UZA-Zq7kuef2tqRc-36" target="L9G7UZA-Zq7kuef2tqRc-38" edge="1">
          <mxGeometry relative="1" as="geometry" />
        </mxCell>
        <mxCell id="L9G7UZA-Zq7kuef2tqRc-36" value="Component User&lt;br&gt;Component Login&lt;br&gt;Component Register&lt;br&gt;Component Edit Profile" style="rounded=0;whiteSpace=wrap;html=1;fontSize=16;" parent="WIyWlLk6GJQsqaUBKTNV-1" vertex="1">
          <mxGeometry x="610" y="345" width="190" height="120" as="geometry" />
        </mxCell>
        <mxCell id="L9G7UZA-Zq7kuef2tqRc-37" style="edgeStyle=orthogonalEdgeStyle;rounded=0;orthogonalLoop=1;jettySize=auto;html=1;entryX=1;entryY=0.75;entryDx=0;entryDy=0;fontSize=16;exitX=0;exitY=0.75;exitDx=0;exitDy=0;" parent="WIyWlLk6GJQsqaUBKTNV-1" source="L9G7UZA-Zq7kuef2tqRc-38" target="L9G7UZA-Zq7kuef2tqRc-36" edge="1">
          <mxGeometry relative="1" as="geometry" />
        </mxCell>
        <mxCell id="L9G7UZA-Zq7kuef2tqRc-41" style="edgeStyle=orthogonalEdgeStyle;rounded=0;orthogonalLoop=1;jettySize=auto;html=1;entryX=0.25;entryY=1;entryDx=0;entryDy=0;fontSize=16;exitX=0.25;exitY=0;exitDx=0;exitDy=0;" parent="WIyWlLk6GJQsqaUBKTNV-1" source="L9G7UZA-Zq7kuef2tqRc-38" target="L9G7UZA-Zq7kuef2tqRc-32" edge="1">
          <mxGeometry relative="1" as="geometry" />
        </mxCell>
        <mxCell id="L9G7UZA-Zq7kuef2tqRc-38" value="VueX" style="rounded=0;whiteSpace=wrap;html=1;fontSize=16;" parent="WIyWlLk6GJQsqaUBKTNV-1" vertex="1">
          <mxGeometry x="1000" y="345" width="130" height="120" as="geometry" />
        </mxCell>
        <mxCell id="L9G7UZA-Zq7kuef2tqRc-39" style="edgeStyle=orthogonalEdgeStyle;rounded=0;orthogonalLoop=1;jettySize=auto;html=1;entryX=0;entryY=0.5;entryDx=0;entryDy=0;fontSize=16;" parent="WIyWlLk6GJQsqaUBKTNV-1" source="L9G7UZA-Zq7kuef2tqRc-10" target="L9G7UZA-Zq7kuef2tqRc-22" edge="1">
          <mxGeometry relative="1" as="geometry" />
        </mxCell>
        <mxCell id="L9G7UZA-Zq7kuef2tqRc-56" style="edgeStyle=orthogonalEdgeStyle;rounded=0;orthogonalLoop=1;jettySize=auto;html=1;entryX=1;entryY=0.25;entryDx=0;entryDy=0;fontSize=16;exitX=-0.02;exitY=0.19;exitDx=0;exitDy=0;exitPerimeter=0;" parent="WIyWlLk6GJQsqaUBKTNV-1" target="L9G7UZA-Zq7kuef2tqRc-32" edge="1">
          <mxGeometry relative="1" as="geometry">
            <mxPoint x="1177.6" y="231.39999999999998" as="sourcePoint" />
          </mxGeometry>
        </mxCell>
        <mxCell id="X_rFcvFdyi5KroDI-qxO-20" value="" style="shape=cylinder3;whiteSpace=wrap;html=1;boundedLbl=1;backgroundOutline=1;size=15;" vertex="1" parent="WIyWlLk6GJQsqaUBKTNV-1">
          <mxGeometry x="1860" y="201" width="60" height="90" as="geometry" />
        </mxCell>
        <mxCell id="X_rFcvFdyi5KroDI-qxO-21" value="MODEL" style="swimlane;" vertex="1" parent="WIyWlLk6GJQsqaUBKTNV-1">
          <mxGeometry x="1520" y="140" width="210" height="210" as="geometry" />
        </mxCell>
        <mxCell id="X_rFcvFdyi5KroDI-qxO-22" value="UserModel" style="rounded=1;whiteSpace=wrap;html=1;" vertex="1" parent="X_rFcvFdyi5KroDI-qxO-21">
          <mxGeometry x="40" y="50" width="120" height="60" as="geometry" />
        </mxCell>
        <mxCell id="X_rFcvFdyi5KroDI-qxO-23" value="StockModel" style="rounded=1;whiteSpace=wrap;html=1;" vertex="1" parent="X_rFcvFdyi5KroDI-qxO-21">
          <mxGeometry x="40" y="130" width="120" height="60" as="geometry" />
        </mxCell>
        <mxCell id="X_rFcvFdyi5KroDI-qxO-24" value="CONTROLLER" style="swimlane;" vertex="1" parent="WIyWlLk6GJQsqaUBKTNV-1">
          <mxGeometry x="1180" y="140" width="210" height="220" as="geometry" />
        </mxCell>
        <mxCell id="X_rFcvFdyi5KroDI-qxO-25" value="UserController" style="rounded=1;whiteSpace=wrap;html=1;" vertex="1" parent="X_rFcvFdyi5KroDI-qxO-24">
          <mxGeometry x="45" y="45" width="120" height="55" as="geometry" />
        </mxCell>
        <mxCell id="X_rFcvFdyi5KroDI-qxO-26" value="StockController" style="rounded=1;whiteSpace=wrap;html=1;" vertex="1" parent="X_rFcvFdyi5KroDI-qxO-24">
          <mxGeometry x="45" y="145" width="120" height="50" as="geometry" />
        </mxCell>
        <mxCell id="X_rFcvFdyi5KroDI-qxO-28" value="" style="endArrow=classic;html=1;rounded=0;entryX=0;entryY=0.275;entryDx=0;entryDy=0;entryPerimeter=0;" edge="1" parent="WIyWlLk6GJQsqaUBKTNV-1" target="X_rFcvFdyi5KroDI-qxO-20">
          <mxGeometry width="50" height="50" relative="1" as="geometry">
            <mxPoint x="1730" y="225" as="sourcePoint" />
            <mxPoint x="1780" y="170" as="targetPoint" />
          </mxGeometry>
        </mxCell>
        <mxCell id="X_rFcvFdyi5KroDI-qxO-29" value="" style="endArrow=classic;html=1;rounded=0;exitX=0;exitY=1;exitDx=0;exitDy=-15;exitPerimeter=0;" edge="1" parent="WIyWlLk6GJQsqaUBKTNV-1" source="X_rFcvFdyi5KroDI-qxO-20">
          <mxGeometry width="50" height="50" relative="1" as="geometry">
            <mxPoint x="1480" y="410" as="sourcePoint" />
            <mxPoint x="1730" y="275" as="targetPoint" />
          </mxGeometry>
        </mxCell>
        <mxCell id="X_rFcvFdyi5KroDI-qxO-30" value="" style="endArrow=classic;html=1;rounded=0;" edge="1" parent="WIyWlLk6GJQsqaUBKTNV-1">
          <mxGeometry width="50" height="50" relative="1" as="geometry">
            <mxPoint x="1390" y="210" as="sourcePoint" />
            <mxPoint x="1520" y="210" as="targetPoint" />
          </mxGeometry>
        </mxCell>
        <mxCell id="X_rFcvFdyi5KroDI-qxO-36" value="DATABASE&lt;br&gt;" style="text;html=1;align=center;verticalAlign=middle;resizable=0;points=[];autosize=1;strokeColor=none;fillColor=none;" vertex="1" parent="WIyWlLk6GJQsqaUBKTNV-1">
          <mxGeometry x="1850" y="170" width="80" height="20" as="geometry" />
        </mxCell>
        <mxCell id="X_rFcvFdyi5KroDI-qxO-27" value="" style="endArrow=classic;html=1;rounded=0;" edge="1" parent="WIyWlLk6GJQsqaUBKTNV-1">
          <mxGeometry width="50" height="50" relative="1" as="geometry">
            <mxPoint x="1520" y="300" as="sourcePoint" />
            <mxPoint x="1390" y="300" as="targetPoint" />
          </mxGeometry>
        </mxCell>
      </root>
    </mxGraphModel>
  </diagram>
</mxfile>
